<?xml version="1.0" encoding="UTF-8"?>
<svg id="Layer_1" xmlns="http://www.w3.org/2000/svg" xmlns:ev="http://www.w3.org/2001/xml-events" baseProfile="tiny" version="1.2" viewBox="0 0 280 60">
  <!-- Generator: Adobe Illustrator 29.7.1, SVG Export Plug-In . SVG Version: 2.1.1 Build 8)  -->
  <g id="compliance">
    <path d="M95.273,29.734h-6.976c-3.616,0-5.695-.576-7.295-2.08-1.888-1.76-2.976-4.831-2.976-8.479,0-4.287,1.536-7.839,4.031-9.439,1.408-.863,3.552-1.344,6.208-1.344h7.007v3.2h-6.656c-2.432,0-3.872.479-4.832,1.6-.928,1.12-1.504,3.296-1.504,5.855,0,2.752.672,4.96,1.824,6.112,1.024.991,2.336,1.375,4.736,1.375h6.432v3.2Z" fill="#959595"/>
    <path d="M117.384,19.239c0,7.039-3.552,10.719-10.335,10.719-3.776,0-6.751-1.184-8.383-3.295-1.344-1.696-2.112-4.512-2.112-7.52,0-3.552.959-6.528,2.656-8.224,1.824-1.824,4.479-2.752,7.871-2.752,6.976,0,10.303,3.584,10.303,11.071ZM100.809,18.983c0,5.472,1.888,7.871,6.176,7.871,4.255,0,6.144-2.368,6.144-7.711,0-5.472-1.856-7.872-6.048-7.872-4.352,0-6.271,2.4-6.271,7.712Z" fill="#959595"/>
    <path d="M132.68,25.446l6.047-17.055h5.76v21.343h-3.776V12.551l-6.144,17.183h-3.968l-6.144-17.183v17.183h-3.775V8.391h5.759l6.24,17.055Z" fill="#959595"/>
    <path d="M152.233,29.734h-3.904V8.391h9.952c3.264,0,4.671.385,5.983,1.696,1.312,1.28,1.983,3.04,1.983,5.119,0,2.24-.832,4.288-2.239,5.504-1.185,1.024-2.72,1.408-5.536,1.408h-6.239v7.615ZM158.088,18.919c1.44,0,2.304-.224,2.88-.768.64-.544,1.056-1.729,1.056-3.04,0-1.28-.447-2.271-1.279-2.943-.544-.416-1.28-.576-2.688-.576h-5.823v7.327h5.855Z" fill="#959595"/>
    <path d="M173.225,8.391v12.224c.063,3.008.288,3.968,1.023,4.703.864.832,2.433,1.248,4.672,1.216h4.479v3.2h-5.056c-3.84-.032-5.184-.384-6.976-1.92-1.504-1.439-2.016-3.136-2.048-6.976v-12.447h3.904Z" fill="#959595"/>
    <path d="M186.569,8.391h3.903v21.343h-3.903V8.391Z" fill="#959595"/>
    <path d="M201.543,8.391h4.832l8.64,21.343h-4.416l-2.111-5.279h-9.216l-2.176,5.279h-4.384l8.831-21.343ZM200.296,21.254h7.135l-3.52-9.151-3.615,9.151Z" fill="#959595"/>
    <path d="M221.127,29.734h-3.775V8.391h4.863l9.791,16.543V8.391h3.776v21.343h-4.704l-9.951-16.415v16.415Z" fill="#959595"/>
    <path d="M256.23,29.734h-6.976c-3.615,0-5.695-.576-7.296-2.08-1.888-1.76-2.976-4.831-2.976-8.479,0-4.287,1.536-7.839,4.032-9.439,1.407-.863,3.552-1.344,6.207-1.344h7.008v3.2h-6.655c-2.432,0-3.872.479-4.832,1.6-.928,1.12-1.504,3.296-1.504,5.855,0,2.752.672,4.96,1.824,6.112,1.023.991,2.336,1.375,4.735,1.375h6.432v3.2Z" fill="#959595"/>
    <path d="M274.533,11.591h-6.079c-4.32-.096-6.176,1.6-6.336,5.855h12.415v3.2h-12.415c.192,4.096,2.144,5.919,6.336,5.887h6.079v3.2h-6.527c-3.808,0-6.111-.736-7.68-2.496-1.76-1.92-2.592-4.543-2.592-8.031,0-3.968,1.152-6.943,3.488-8.959,1.504-1.312,3.424-1.856,6.56-1.856h6.751v3.2Z" fill="#959595"/>
  </g>
  <g id="engineering">
    <path d="M94.271,38.586h-5.891c-4.186-.093-5.984,1.55-6.139,5.674h12.03v3.101h-12.03c.186,3.969,2.078,5.737,6.139,5.706h5.891v3.101h-6.325c-3.69,0-5.922-.713-7.441-2.419-1.706-1.859-2.511-4.402-2.511-7.783,0-3.845,1.116-6.728,3.379-8.682,1.458-1.271,3.318-1.798,6.356-1.798h6.542v3.101Z" fill="#959595"/>
    <path d="M101.492,56.167h-3.659v-20.681h4.713l9.488,16.03v-16.03h3.659v20.681h-4.558l-9.643-15.907v15.907Z" fill="#959595"/>
    <path d="M136.524,44.105v12.062h-8.34c-3.659,0-5.364-.465-7.007-1.923-1.953-1.705-2.945-4.526-2.945-8.309,0-4.311,1.209-7.318,3.565-8.961,1.52-1.023,3.473-1.488,6.542-1.488h8.186v3.101h-7.813c-2.573,0-3.813.372-4.806,1.457-.93,1.023-1.52,2.945-1.52,5.054,0,2.419.403,4.528,1.055,5.674.992,1.736,2.325,2.295,5.333,2.295h3.969v-5.861h-6.108v-3.101h9.891Z" fill="#959595"/>
    <path d="M140.334,35.485h3.783v20.681h-3.783v-20.681Z" fill="#959595"/>
    <path d="M152.145,56.167h-3.659v-20.681h4.713l9.488,16.03v-16.03h3.659v20.681h-4.559l-9.643-15.907v15.907Z" fill="#959595"/>
    <path d="M185.194,38.586h-5.892c-4.186-.093-5.984,1.55-6.14,5.674h12.031v3.101h-12.031c.187,3.969,2.078,5.737,6.14,5.706h5.892v3.101h-6.326c-3.689,0-5.922-.713-7.441-2.419-1.705-1.859-2.511-4.402-2.511-7.783,0-3.845,1.116-6.728,3.38-8.682,1.457-1.271,3.317-1.798,6.355-1.798h6.543v3.101Z" fill="#959595"/>
    <path d="M203.885,38.586h-5.891c-4.186-.093-5.984,1.55-6.139,5.674h12.029v3.101h-12.029c.186,3.969,2.077,5.737,6.139,5.706h5.891v3.101h-6.324c-3.69,0-5.923-.713-7.441-2.419-1.706-1.859-2.512-4.402-2.512-7.783,0-3.845,1.116-6.728,3.379-8.682,1.458-1.271,3.318-1.798,6.356-1.798h6.542v3.101Z" fill="#959595"/>
    <path d="M211.231,56.167h-3.783v-20.681h9.705c2.915,0,4.713.341,5.86,1.116,1.488.992,2.356,2.697,2.356,4.65,0,1.736-.62,3.317-1.612,4.31-.713.651-1.302.992-2.512,1.365,2.573.898,3.597,2.574,3.783,6.077.155,2.202.186,2.388.526,3.163h-4.092c-.125-.341-.187-.527-.248-.899,0-.186-.062-.558-.094-1.085l-.093-.992c-.372-4.062-1.984-5.426-6.388-5.396h-3.41v8.373ZM217.246,44.694c1.488,0,2.355-.155,2.883-.559.744-.527,1.116-1.396,1.116-2.543,0-1.271-.496-2.232-1.396-2.666-.465-.248-1.178-.341-2.604-.341h-6.016v6.108h6.016Z" fill="#959595"/>
    <path d="M228.838,35.485h3.782v20.681h-3.782v-20.681Z" fill="#959595"/>
    <path d="M240.029,56.167h-3.659v-20.681h4.713l9.488,16.03v-16.03h3.658v20.681h-4.558l-9.643-15.907v15.907Z" fill="#959595"/>
    <path d="M274.441,44.105v12.062h-8.341c-3.658,0-5.363-.465-7.007-1.923-1.953-1.705-2.945-4.526-2.945-8.309,0-4.311,1.209-7.318,3.565-8.961,1.52-1.023,3.473-1.488,6.542-1.488h8.186v3.101h-7.813c-2.573,0-3.813.372-4.806,1.457-.931,1.023-1.52,2.945-1.52,5.054,0,2.419.403,4.528,1.055,5.674.992,1.736,2.325,2.295,5.333,2.295h3.969v-5.861h-6.108v-3.101h9.891Z" fill="#959595"/>
  </g>
  <g id="icon">
    <path d="M42.957,56.167h-6.759c-3.503,0-5.519-.558-7.069-2.016-1.83-1.705-2.883-4.682-2.883-8.216,0-4.155,1.488-7.597,3.906-9.147,1.364-.837,3.442-1.302,6.016-1.302h6.79v3.101h-6.449c-2.356,0-3.752.465-4.682,1.55-.899,1.086-1.458,3.193-1.458,5.674,0,2.667.651,4.807,1.767,5.923.992.961,2.264,1.333,4.589,1.333h6.232v3.101Z" fill="#021837"/>
    <path d="M60.069,38.586h-5.891c-4.186-.093-5.984,1.55-6.139,5.674h12.03v3.101h-12.03c.186,3.969,2.077,5.737,6.139,5.706h5.891v3.101h-6.325c-3.689,0-5.922-.713-7.441-2.419-1.705-1.859-2.512-4.402-2.512-7.783,0-3.845,1.116-6.728,3.38-8.682,1.457-1.271,3.317-1.798,6.356-1.798h6.542v3.101Z" fill="#021837"/>
    <path d="M22.305,44.321h-6.43c-3.442,0-6.242-2.8-6.242-6.242V14.002c0-3.442,2.8-6.242,6.242-6.242h33.952c3.442,0,6.242,2.8,6.242,6.242v17.695h4V14.002c0-5.656-4.585-10.242-10.242-10.242H15.875c-5.656,0-10.242,4.585-10.242,10.242v24.078c0,5.656,4.585,10.242,10.242,10.242h6.43v-4Z" fill="#021837"/>
  </g>
</svg>