<?xml version="1.0" encoding="UTF-8"?>
<svg id="Layer_1" xmlns="http://www.w3.org/2000/svg" xmlns:ev="http://www.w3.org/2001/xml-events" baseProfile="tiny" version="1.2" viewBox="0 0 60 60">
  <!-- Generator: Adobe Illustrator 29.7.1, SVG Export Plug-In . SVG Version: 2.1.1 Build 8)  -->
  <g id="icon">
    <path d="M40.106,56.167h-6.759c-3.503,0-5.519-.558-7.069-2.016-1.83-1.705-2.883-4.682-2.883-8.216,0-4.155,1.488-7.597,3.906-9.147,1.364-.837,3.442-1.302,6.016-1.302h6.79v3.101h-6.449c-2.356,0-3.752.465-4.682,1.55-.899,1.086-1.458,3.193-1.458,5.674,0,2.667.651,4.807,1.767,5.923.992.961,2.264,1.333,4.589,1.333h6.232v3.101Z" fill="#021837"/>
    <path d="M57.218,38.586h-5.891c-4.186-.093-5.984,1.55-6.139,5.674h12.03v3.101h-12.03c.186,3.969,2.077,5.737,6.139,5.706h5.891v3.101h-6.325c-3.689,0-5.922-.713-7.441-2.419-1.705-1.859-2.512-4.402-2.512-7.783,0-3.845,1.116-6.728,3.38-8.682,1.457-1.271,3.317-1.798,6.356-1.798h6.542v3.101Z" fill="#021837"/>
    <path d="M19.454,44.321h-6.43c-3.442,0-6.242-2.8-6.242-6.242V14.002c0-3.442,2.8-6.242,6.242-6.242h33.952c3.442,0,6.242,2.8,6.242,6.242v17.695h4V14.002c0-5.656-4.585-10.242-10.242-10.242H13.024C7.368,3.76,2.782,8.345,2.782,14.002v24.078c0,5.656,4.585,10.242,10.242,10.242h6.43v-4Z" fill="#021837"/>
  </g>
</svg>